<mxfile host="app.diagrams.net" modified="2021-08-30T07:27:44.904Z" agent="5.0 (Macintosh; Intel Mac OS X 10_15_7) AppleWebKit/537.36 (KHTML, like Gecko) Chrome/92.0.4515.159 Safari/537.36" etag="f2L4kq9RGl1liZw3tvSC" version="14.9.8" type="github">
  <diagram id="loM0l3aEy5fwngCcPqAx" name="Page-1">
    <mxGraphModel dx="1186" dy="614" grid="1" gridSize="10" guides="1" tooltips="1" connect="1" arrows="1" fold="1" page="1" pageScale="1" pageWidth="850" pageHeight="1100" math="0" shadow="0">
      <root>
        <mxCell id="0" />
        <mxCell id="1" parent="0" />
        <mxCell id="i75fvcy3MRpBaPY0_CUm-3" value="Logs" style="rounded=1;whiteSpace=wrap;html=1;" vertex="1" parent="1">
          <mxGeometry x="410" y="300" width="120" height="60" as="geometry" />
        </mxCell>
        <mxCell id="i75fvcy3MRpBaPY0_CUm-7" style="edgeStyle=orthogonalEdgeStyle;rounded=0;orthogonalLoop=1;jettySize=auto;html=1;entryX=0.5;entryY=0;entryDx=0;entryDy=0;startArrow=none;" edge="1" parent="1" source="i75fvcy3MRpBaPY0_CUm-8" target="i75fvcy3MRpBaPY0_CUm-3">
          <mxGeometry relative="1" as="geometry" />
        </mxCell>
        <mxCell id="i75fvcy3MRpBaPY0_CUm-6" value="Clients" style="swimlane;" vertex="1" parent="1">
          <mxGeometry x="325" width="290" height="140" as="geometry" />
        </mxCell>
        <mxCell id="i75fvcy3MRpBaPY0_CUm-4" value="bingo" style="rounded=1;whiteSpace=wrap;html=1;" vertex="1" parent="i75fvcy3MRpBaPY0_CUm-6">
          <mxGeometry x="10" y="50" width="120" height="60" as="geometry" />
        </mxCell>
        <mxCell id="i75fvcy3MRpBaPY0_CUm-5" value="msi" style="rounded=1;whiteSpace=wrap;html=1;" vertex="1" parent="i75fvcy3MRpBaPY0_CUm-6">
          <mxGeometry x="150" y="50" width="120" height="60" as="geometry" />
        </mxCell>
        <mxCell id="i75fvcy3MRpBaPY0_CUm-8" value="autossh&lt;br&gt;ansible&lt;br&gt;(per haralf day)" style="rhombus;whiteSpace=wrap;html=1;" vertex="1" parent="1">
          <mxGeometry x="410" y="180" width="120" height="80" as="geometry" />
        </mxCell>
        <mxCell id="i75fvcy3MRpBaPY0_CUm-9" value="" style="edgeStyle=orthogonalEdgeStyle;rounded=0;orthogonalLoop=1;jettySize=auto;html=1;entryX=0.5;entryY=0;entryDx=0;entryDy=0;endArrow=none;" edge="1" parent="1" source="i75fvcy3MRpBaPY0_CUm-6" target="i75fvcy3MRpBaPY0_CUm-8">
          <mxGeometry relative="1" as="geometry">
            <mxPoint x="470" y="110" as="sourcePoint" />
            <mxPoint x="470" y="300" as="targetPoint" />
          </mxGeometry>
        </mxCell>
        <mxCell id="i75fvcy3MRpBaPY0_CUm-10" value="" style="endArrow=classic;html=1;exitX=0.5;exitY=1;exitDx=0;exitDy=0;" edge="1" parent="1" source="i75fvcy3MRpBaPY0_CUm-3" target="i75fvcy3MRpBaPY0_CUm-11">
          <mxGeometry width="50" height="50" relative="1" as="geometry">
            <mxPoint x="400" y="320" as="sourcePoint" />
            <mxPoint x="470" y="520" as="targetPoint" />
          </mxGeometry>
        </mxCell>
        <mxCell id="i75fvcy3MRpBaPY0_CUm-11" value="Operation&lt;br&gt;Dashboard" style="rounded=1;whiteSpace=wrap;html=1;" vertex="1" parent="1">
          <mxGeometry x="410" y="400" width="120" height="60" as="geometry" />
        </mxCell>
        <mxCell id="i75fvcy3MRpBaPY0_CUm-12" value="" style="endArrow=classic;html=1;exitX=0.5;exitY=1;exitDx=0;exitDy=0;" edge="1" parent="1" source="i75fvcy3MRpBaPY0_CUm-11" target="i75fvcy3MRpBaPY0_CUm-13">
          <mxGeometry width="50" height="50" relative="1" as="geometry">
            <mxPoint x="420" y="350" as="sourcePoint" />
            <mxPoint x="470" y="540" as="targetPoint" />
          </mxGeometry>
        </mxCell>
        <mxCell id="i75fvcy3MRpBaPY0_CUm-13" value="Alert" style="rounded=1;whiteSpace=wrap;html=1;" vertex="1" parent="1">
          <mxGeometry x="410" y="500" width="120" height="60" as="geometry" />
        </mxCell>
      </root>
    </mxGraphModel>
  </diagram>
</mxfile>
